<svg width="59" height="51" viewBox="0 0 59 51" fill="none" xmlns="http://www.w3.org/2000/svg">
<path d="M5.5 15L3.02512 17.4749L0.55025 15L3.02512 12.5251L5.5 15ZM41.4375 43.125L41.4375 46.625L41.4375 46.625L41.4375 43.125ZM27.375 46.625C25.442 46.625 23.875 45.058 23.875 43.125C23.875 41.192 25.442 39.625 27.375 39.625L27.375 46.625ZM15.5251 29.9749L3.02512 17.4749L7.97487 12.5251L20.4749 25.0251L15.5251 29.9749ZM3.02512 12.5251L15.5251 0.0251252L20.4749 4.97487L7.97487 17.4749L3.02512 12.5251ZM5.5 11.5L41.4375 11.5L41.4375 18.5L5.5 18.5L5.5 11.5ZM41.4375 46.625L27.375 46.625L27.375 39.625L41.4375 39.625L41.4375 46.625ZM59 29.0625C59 38.762 51.137 46.625 41.4375 46.625L41.4375 39.625C47.271 39.625 52 34.896 52 29.0625L59 29.0625ZM41.4375 11.5C51.137 11.5 59 19.363 59 29.0625L52 29.0625C52 23.229 47.271 18.5 41.4375 18.5L41.4375 11.5Z" fill="#062D73"/>
</svg>
