<svg width="46" height="168" viewBox="0 0 46 168" fill="none" xmlns="http://www.w3.org/2000/svg">
<path d="M20.8865 167.119C22.0581 168.291 23.9576 168.291 25.1291 167.119L44.221 148.027C45.3926 146.856 45.3926 144.956 44.221 143.785C43.0494 142.613 41.1499 142.613 39.9784 143.785L23.0078 160.755L6.03725 143.785C4.86568 142.613 2.96618 142.613 1.79461 143.785C0.623036 144.956 0.623036 146.856 1.79461 148.027L20.8865 167.119ZM26.0078 164.998V159.105H20.0078V164.998H26.0078ZM26.0078 147.319V135.534H20.0078V147.319H26.0078ZM26.0078 123.748V111.962H20.0078V123.748H26.0078ZM26.0078 100.177L26.0078 88.3909H20.0078V100.177H26.0078ZM26.0078 76.6052V64.8195H20.0078V76.6052H26.0078ZM26.0078 53.0338V41.2481H20.0078V53.0338H26.0078ZM26.0078 29.4623L26.0078 17.6766H20.0078L20.0078 29.4623H26.0078ZM26.0078 5.8909V-0.0019567H20.0078V5.8909H26.0078Z" fill="#062D73"/>
</svg>
